<svg xmlns="http://www.w3.org/2000/svg" width="720" height="440" viewBox="0 0 720 440" font-family="Helvetica,Arial,sans-serif">
<rect x="0" y="0" width="720" height="440" fill="#ffffff"/>
<text x="360.0" y="24" font-size="16" text-anchor="middle" fill="#1a1a1a" font-weight="600">Wall-clock QPS vs Document Scale</text>
<line x1="70" y1="380.0" x2="690" y2="380.0" stroke="#e5e5e5" stroke-width="1"/>
<text x="62" y="384.0" font-size="10" text-anchor="end" fill="#555">43.3</text>
<line x1="70" y1="312.0" x2="690" y2="312.0" stroke="#e5e5e5" stroke-width="1"/>
<text x="62" y="316.0" font-size="10" text-anchor="end" fill="#555">165.9</text>
<line x1="70" y1="244.0" x2="690" y2="244.0" stroke="#e5e5e5" stroke-width="1"/>
<text x="62" y="248.0" font-size="10" text-anchor="end" fill="#555">288.5</text>
<line x1="70" y1="176.0" x2="690" y2="176.0" stroke="#e5e5e5" stroke-width="1"/>
<text x="62" y="180.0" font-size="10" text-anchor="end" fill="#555">411.1</text>
<line x1="70" y1="108.0" x2="690" y2="108.0" stroke="#e5e5e5" stroke-width="1"/>
<text x="62" y="112.0" font-size="10" text-anchor="end" fill="#555">533.8</text>
<line x1="70" y1="40.0" x2="690" y2="40.0" stroke="#e5e5e5" stroke-width="1"/>
<text x="62" y="44.0" font-size="10" text-anchor="end" fill="#555">656.4</text>
<text x="70.0" y="400.0" font-size="11" text-anchor="middle" fill="#333">1K</text>
<text x="194.0" y="400.0" font-size="11" text-anchor="middle" fill="#333">10K</text>
<text x="318.0" y="400.0" font-size="11" text-anchor="middle" fill="#333">20K</text>
<text x="442.0" y="400.0" font-size="11" text-anchor="middle" fill="#333">50K</text>
<text x="566.0" y="400.0" font-size="11" text-anchor="middle" fill="#333">100K</text>
<text x="690.0" y="400.0" font-size="11" text-anchor="middle" fill="#333">200K</text>
<text x="380.0" y="426" font-size="11" text-anchor="middle" fill="#333">Document scale</text>
<text x="16" y="210.0" font-size="11" text-anchor="middle" fill="#333" transform="rotate(-90 16 210.0)">queries/sec</text>
<line x1="70" y1="40" x2="70" y2="380" stroke="#999"/>
<line x1="70" y1="380" x2="690" y2="380" stroke="#999"/>
<path d="M 70.0,184.7 L 194.0,224.5 L 318.0,236.7 L 442.0,277.8 L 566.0,345.1 L 690.0,351.7" fill="none" stroke="#5B8FF9" stroke-width="2.5"/>
<circle cx="70.0" cy="184.7" r="3.5" fill="#5B8FF9"/>
<circle cx="194.0" cy="224.5" r="3.5" fill="#5B8FF9"/>
<circle cx="318.0" cy="236.7" r="3.5" fill="#5B8FF9"/>
<circle cx="442.0" cy="277.8" r="3.5" fill="#5B8FF9"/>
<circle cx="566.0" cy="345.1" r="3.5" fill="#5B8FF9"/>
<circle cx="690.0" cy="351.7" r="3.5" fill="#5B8FF9"/>
<path d="M 70.0,182.0 L 194.0,68.3 L 318.0,143.2 L 442.0,293.2 L 566.0,241.5 L 690.0,316.3" fill="none" stroke="#5AD8A6" stroke-width="2.5"/>
<circle cx="70.0" cy="182.0" r="3.5" fill="#5AD8A6"/>
<circle cx="194.0" cy="68.3" r="3.5" fill="#5AD8A6"/>
<circle cx="318.0" cy="143.2" r="3.5" fill="#5AD8A6"/>
<circle cx="442.0" cy="293.2" r="3.5" fill="#5AD8A6"/>
<circle cx="566.0" cy="241.5" r="3.5" fill="#5AD8A6"/>
<circle cx="690.0" cy="316.3" r="3.5" fill="#5AD8A6"/>
<path d="M 70.0,290.9 L 194.0,302.2 L 318.0,314.3 L 442.0,319.5 L 566.0,336.4 L 690.0,330.3" fill="none" stroke="#F6BD16" stroke-width="2.5"/>
<circle cx="70.0" cy="290.9" r="3.5" fill="#F6BD16"/>
<circle cx="194.0" cy="302.2" r="3.5" fill="#F6BD16"/>
<circle cx="318.0" cy="314.3" r="3.5" fill="#F6BD16"/>
<circle cx="442.0" cy="319.5" r="3.5" fill="#F6BD16"/>
<circle cx="566.0" cy="336.4" r="3.5" fill="#F6BD16"/>
<circle cx="690.0" cy="330.3" r="3.5" fill="#F6BD16"/>
<path d="M 70.0,210.1 L 194.0,266.7 L 318.0,252.5 L 442.0,278.5 L 566.0,287.5 L 690.0,294.7" fill="none" stroke="#E86452" stroke-width="2.5"/>
<circle cx="70.0" cy="210.1" r="3.5" fill="#E86452"/>
<circle cx="194.0" cy="266.7" r="3.5" fill="#E86452"/>
<circle cx="318.0" cy="252.5" r="3.5" fill="#E86452"/>
<circle cx="442.0" cy="278.5" r="3.5" fill="#E86452"/>
<circle cx="566.0" cy="287.5" r="3.5" fill="#E86452"/>
<circle cx="690.0" cy="294.7" r="3.5" fill="#E86452"/>
<rect x="80" y="40" width="10" height="10" fill="#5B8FF9"/>
<text x="94" y="49" font-size="11" fill="#222">Qdrant</text>
<rect x="80" y="56" width="10" height="10" fill="#5AD8A6"/>
<text x="94" y="65" font-size="11" fill="#222">Milvus</text>
<rect x="80" y="72" width="10" height="10" fill="#F6BD16"/>
<text x="94" y="81" font-size="11" fill="#222">Elasticsearch</text>
<rect x="80" y="88" width="10" height="10" fill="#E86452"/>
<text x="94" y="97" font-size="11" fill="#222">Weaviate</text>
</svg>